# xmcd
#
# Track frame offsets: 
#        150
#        2903
#        25176
#        44592
#        62813
#        85791
#        109948
#        135316
#        144285
#        164446
#        191100
#        211744
#        237375
#        255918
#        282693
#
# Disc length: 4010 seconds
#
# Revision: 1
# Processed by: cddbd v1.5.2PL0 Copyright (c) Steve Scherf et al.
# Submitted via: ExactAudioCopy v0.99pb5
#
DISCID=d30fa80f
DTITLE=Various Artist - Mr Bongo Latin Beats Boxset CD2 Cuba Moderna
DYEAR=2009
DGENRE=Salsa
TTITLE0=Llego La Ola - Jose Conde y Ola Fresca
TTITLE1=Sexo Dinero Y Fantasia - Hanny
TTITLE2=Ritmo Y Sabor - Jose Conde y Ola Fresca
TTITLE3=Cafe Con Sangre - Jose Conde y Ola Fresca
TTITLE4=Ibanerra - Hanny
TTITLE5=Oshiri Pan Pan - Jose Conde y Ola Fresca
TTITLE6=Descarga Inez - Jose Conde y Ola Fresca
TTITLE7=A night in Havana - Sao Benitez 
TTITLE8=Tu ma Quieres Pa Bien - Hanny
TTITLE9=Ride La Ola - Jose Conde y Ola Fresca 
TTITLE10=El Titere  - Jose Conde y Ola Fresca
TTITLE11=Ojos Que No Ven - Hanny
TTITLE12=Como Droga Poderosa - Hanny
TTITLE13=El Chacal - Jose Conde y Ola Fresca
TTITLE14=Pititi Y Titi - Jose Conde y Ola Fresca
EXTD=YEAR: 2009
EXTT0=
EXTT1=
EXTT2=
EXTT3=
EXTT4=
EXTT5=
EXTT6=
EXTT7=
EXTT8=
EXTT9=
EXTT10=
EXTT11=
EXTT12=
EXTT13=
EXTT14=
PLAYORDER=
